<?xml version="1.0" encoding="UTF-8" standalone="no"?>
<svg xmlns="http://www.w3.org/2000/svg" viewBox="0 0 400 90">
  <g fill="#8e2b85">
    <path d="M17.5,15 L31,15 L45,65 L38,65 L35,55 L13,55 L10,65 L3,65 L17.5,15 Z M33,48 L24,20 L15,48 L33,48 Z"/>
    <path d="M57,15 L65,15 L73,47 L82,15 L90,15 L75,65 L73,65 L57,15 Z"/>
    <path d="M100,15 L107,15 L107,40 C107,47 111,50 116,50 C121,50 125,47 125,40 L125,15 L132,15 L132,42 C132,51 126,58 116,58 C106,58 100,51 100,42 L100,15 Z"/>
    <path d="M142,15 L149,15 L149,45 C149,50 152,51 155,51 C158,51 161,50 165,45 L165,15 L173,15 L173,57 L165,57 L165,52 C162,56 158,58 152,58 C147,58 142,54 142,46 L142,15 Z"/>
    <path d="M185,15 L194,15 L203,47 L212,15 L220,15 L205,65 L203,65 L185,15 Z"/>
    <path d="M230,15 L238,15 C244,15 247,15 251,18 C255,21 257,25 257,32 C257,38 255,43 251,46 C247,49 244,50 238,50 L237,50 L237,65 L230,65 L230,15 Z M237,22 L237,43 L239,43 C246,43 250,39 250,32 C250,26 246,22 239,22 L237,22 Z"/>
    <path d="M270,15 L277,15 C283,15 286,15 290,18 C294,21 296,25 296,32 C296,38 294,43 290,46 C286,49 283,49 277,49 L277,49 L277,65 L270,65 L270,15 Z M277,22 L277,43 L279,43 C286,43 290,39 290,32 C290,26 286,22 279,22 L277,22 Z"/>
    <path d="M310,40 L310,57 L303,57 L303,15 L311,15 L311,20 C313,16 317,14 322,14 C330,14 337,20 337,36 C337,51 330,58 322,58 C317,58 313,56 310,52 L310,40 Z M315,36 C315,45 319,51 325,51 C330,51 334,47 334,36 C334,25 330,21 325,21 C319,21 315,27 315,36 Z"/>
    <path d="M347,15 L367,15 C376,15 383,20 383,29 C383,38 376,43 367,43 L354,43 L354,65 L347,65 L347,15 Z M354,22 L354,36 L366,36 C371,36 375,33 375,29 C375,25 371,22 366,22 L354,22 Z"/>
  </g>
</svg>