<?xml version="1.0" encoding="UTF-8" standalone="no"?>
<svg width="260" height="46" viewBox="0 0 260 46" fill="none" xmlns="http://www.w3.org/2000/svg">
  <g fill="#8e2b85">
    <path d="M11.4,14.3h-7.2V45h-4.1v-45h23.8l-12.5,45h-4.2L11.4,14.3z"/>
    <path d="M47.8,45h-3.9L34,13.1L24.1,45h-3.9l12.9-45h1.8L47.8,45z"/>
    <path d="M71,45h-4.3V27.7c0-1.8-0.3-3.2-0.8-4.1c-0.5-0.9-1.2-1.5-2-1.9c-0.8-0.4-1.8-0.6-2.9-0.6c-1.8,0-3.3,0.7-4.5,2.1c-1.2,1.4-1.8,3.4-1.8,6.1V45h-4.3V0h4.3v18.4c1-1.8,2.2-3.1,3.7-4c1.5-0.9,3.2-1.3,5.1-1.3c2.8,0,5.1,0.9,6.7,2.6c1.6,1.7,2.4,4.1,2.4,7.1V45z"/>
    <path d="M96.8,31.6h-19.5c0.1,2.8,1,5,2.6,6.6c1.6,1.6,3.7,2.3,6.3,2.3c1.7,0,3.2-0.3,4.5-1c1.3-0.7,2.5-1.7,3.4-3l2.3,2.4c-1.2,1.7-2.7,3-4.5,3.9c-1.8,0.9-3.8,1.4-6.2,1.4c-2.6,0-4.9-0.6-6.8-1.7c-1.9-1.1-3.4-2.7-4.5-4.8c-1.1-2.1-1.6-4.5-1.6-7.2c0-2.7,0.5-5.1,1.6-7.2c1.1-2.1,2.5-3.7,4.3-4.8c1.8-1.1,3.9-1.7,6.2-1.7c2.3,0,4.3,0.6,6.1,1.7c1.8,1.1,3.2,2.7,4.3,4.8c1,2.1,1.5,4.5,1.5,7.3V31.6zM79.6,20.7c-1.5,1.5-2.4,3.6-2.6,6.2h15.2c-0.2-2.6-1.1-4.7-2.6-6.2c-1.5-1.5-3.4-2.3-5.7-2.3C83,18.4,81.1,19.2,79.6,20.7z"/>
    <path d="M115.4,45h-4.3V14.3h4.3V45z M110.7,6.2c-0.5-0.5-0.8-1.1-0.8-1.9c0-0.8,0.3-1.5,0.8-2c0.5-0.5,1.2-0.8,2-0.8c0.8,0,1.5,0.3,2,0.8c0.5,0.5,0.8,1.2,0.8,2c0,0.8-0.3,1.4-0.8,1.9c-0.5,0.5-1.2,0.8-2,0.8C111.9,6.9,111.2,6.7,110.7,6.2z"/>
    <path d="M146,22c-2.2,0-4.2,0.6-5.9,1.8c-1.7,1.2-3.1,2.9-4.1,5c-1,2.1-1.5,4.6-1.5,7.3c0,2.7,0.5,5.1,1.5,7.2c1,2.1,2.4,3.7,4.1,4.9c1.7,1.2,3.7,1.8,5.9,1.8c1.6,0,3.1-0.3,4.6-0.9c1.5-0.6,2.7-1.5,3.7-2.6l2.6,2.7c-1.4,1.6-3.1,2.8-5.1,3.6c-2,0.8-4.1,1.2-6.3,1.2c-3,0-5.7-0.7-8-2.1c-2.3-1.4-4.1-3.3-5.4-5.8c-1.3-2.5-2-5.3-2-8.4c0-3.1,0.7-5.9,2-8.4c1.3-2.5,3.1-4.4,5.4-5.8c2.3-1.4,5-2.1,8-2.1c2.1,0,4.1,0.4,6.1,1.1c2,0.7,3.7,1.8,5,3.1l-2.4,3.1C152.2,23.4,149.3,22,146,22z"/>
    <path d="M174.2,45h-4.3V14.3h4.3V45z M169.6,6.2c-0.5-0.5-0.8-1.1-0.8-1.9c0-0.8,0.3-1.5,0.8-2c0.5-0.5,1.2-0.8,2-0.8c0.8,0,1.5,0.3,2,0.8c0.5,0.5,0.8,1.2,0.8,2c0,0.8-0.3,1.4-0.8,1.9c-0.5,0.5-1.2,0.8-2,0.8C170.8,6.9,170.1,6.7,169.6,6.2z"/>
    <path d="M204.5,45h-4.1V27.7c0-2.1-0.4-3.7-1.3-4.8c-0.9-1.1-2.2-1.6-3.9-1.6c-1.2,0-2.3,0.3-3.3,0.9c-1,0.6-1.8,1.5-2.4,2.6c-0.6,1.1-0.9,2.4-0.9,3.8V45h-4.3V14.3h4.1v4.8c0.8-1.6,2-2.9,3.6-3.8c1.5-0.9,3.3-1.4,5.3-1.4c2.4,0,4.3,0.8,5.7,2.3c1.4,1.6,2.1,3.7,2.1,6.5V45z"/>
    <path d="M235.8,45h-3.9c-2.2,0-3.9-0.5-5.1-1.6c-1.2-1.1-1.8-2.6-1.8-4.8V18.4h-5.2v-4h5.2V7h4.3v7.4h8.2v4h-8.2v19.8c0,1.2,0.3,2,0.8,2.5c0.5,0.5,1.4,0.8,2.6,0.8h3.1V45z"/>
    <path d="M259.3,32.9h-23.2v-4.2h23.2V32.9z"/>
  </g>
</svg>